<svg width="304" height="87" viewBox="0 0 304 87" fill="none" xmlns="http://www.w3.org/2000/svg">
<path d="M19.9341 70H1.93408L10.6273 17.6364H28.4739C33.6727 17.6364 37.9852 18.7102 41.4114 20.858C44.8375 23.0057 47.2409 26.0739 48.6216 30.0625C50.0193 34.0341 50.2579 38.7727 49.3375 44.2784C48.4511 49.6648 46.704 54.2756 44.096 58.1108C41.4881 61.946 38.1386 64.8864 34.0477 66.9318C29.9568 68.9773 25.2523 70 19.9341 70ZM12.775 61.7926H20.4199C24.0506 61.7926 27.2125 61.1023 29.9057 59.7216C32.6159 58.3239 34.8233 56.2528 36.5278 53.5085C38.2494 50.7472 39.4426 47.321 40.1074 43.2301C40.7722 39.3097 40.7295 36.071 39.9795 33.5142C39.2295 30.9403 37.7722 29.0227 35.6074 27.7614C33.4597 26.483 30.6131 25.8438 27.0676 25.8438H18.7324L12.775 61.7926ZM69.5757 70.7926C65.8939 70.7926 62.6808 69.9489 59.9365 68.2614C57.1922 66.5739 55.0615 64.2131 53.5445 61.179C52.0274 58.1449 51.2689 54.5994 51.2689 50.5426C51.2689 46.4687 52.0274 42.9062 53.5445 39.8551C55.0615 36.804 57.1922 34.4347 59.9365 32.7472C62.6808 31.0597 65.8939 30.2159 69.5757 30.2159C73.2575 30.2159 76.4706 31.0597 79.2149 32.7472C81.9593 34.4347 84.0899 36.804 85.607 39.8551C87.124 42.9062 87.8826 46.4687 87.8826 50.5426C87.8826 54.5994 87.124 58.1449 85.607 61.179C84.0899 64.2131 81.9593 66.5739 79.2149 68.2614C76.4706 69.9489 73.2575 70.7926 69.5757 70.7926ZM69.6013 64.375C71.9877 64.375 73.9649 63.7443 75.5331 62.483C77.1013 61.2216 78.2604 59.5426 79.0104 57.446C79.7774 55.3494 80.161 53.0398 80.161 50.517C80.161 48.0114 79.7774 45.7102 79.0104 43.6136C78.2604 41.5 77.1013 39.804 75.5331 38.5256C73.9649 37.2472 71.9877 36.608 69.6013 36.608C67.1979 36.608 65.2036 37.2472 63.6183 38.5256C62.0502 39.804 60.8826 41.5 60.1155 43.6136C59.3655 45.7102 58.9905 48.0114 58.9905 50.517C58.9905 53.0398 59.3655 55.3494 60.1155 57.446C60.8826 59.5426 62.0502 61.2216 63.6183 62.483C65.2036 63.7443 67.1979 64.375 69.6013 64.375ZM108.639 70.7926C104.837 70.7926 101.565 69.9318 98.8204 68.2102C96.0931 66.4716 93.9965 64.0767 92.5306 61.0256C91.0647 57.9744 90.3317 54.4801 90.3317 50.5426C90.3317 46.554 91.0817 43.0341 92.5817 39.983C94.0817 36.9148 96.1954 34.5199 98.9226 32.7983C101.65 31.0767 104.863 30.2159 108.562 30.2159C111.545 30.2159 114.204 30.7699 116.539 31.8778C118.874 32.9687 120.758 34.5028 122.19 36.4801C123.639 38.4574 124.499 40.767 124.772 43.4091H117.332C116.923 41.5682 115.985 39.983 114.519 38.6534C113.07 37.3239 111.127 36.6591 108.69 36.6591C106.559 36.6591 104.693 37.2216 103.09 38.3466C101.505 39.4545 100.269 41.0398 99.3829 43.1023C98.4965 45.1477 98.0533 47.5682 98.0533 50.3636C98.0533 53.2273 98.488 55.6989 99.3573 57.7784C100.227 59.858 101.454 61.4688 103.039 62.6108C104.641 63.7528 106.525 64.3239 108.69 64.3239C110.139 64.3239 111.451 64.0597 112.627 63.5312C113.82 62.9858 114.818 62.2102 115.619 61.2045C116.437 60.1989 117.008 58.9886 117.332 57.5739H124.772C124.499 60.1136 123.673 62.3807 122.292 64.375C120.911 66.3693 119.062 67.9375 116.744 69.0795C114.443 70.2216 111.741 70.7926 108.639 70.7926ZM145.17 70.7926C141.369 70.7926 138.096 69.9318 135.352 68.2102C132.625 66.4716 130.528 64.0767 129.062 61.0256C127.596 57.9744 126.863 54.4801 126.863 50.5426C126.863 46.554 127.613 43.0341 129.113 39.983C130.613 36.9148 132.727 34.5199 135.454 32.7983C138.181 31.0767 141.395 30.2159 145.093 30.2159C148.076 30.2159 150.735 30.7699 153.071 31.8778C155.406 32.9687 157.289 34.5028 158.721 36.4801C160.17 38.4574 161.031 40.767 161.304 43.4091H153.863C153.454 41.5682 152.517 39.983 151.051 38.6534C149.602 37.3239 147.659 36.6591 145.221 36.6591C143.091 36.6591 141.224 37.2216 139.622 38.3466C138.037 39.4545 136.801 41.0398 135.914 43.1023C135.028 45.1477 134.585 47.5682 134.585 50.3636C134.585 53.2273 135.02 55.6989 135.889 57.7784C136.758 59.858 137.985 61.4688 139.571 62.6108C141.173 63.7528 143.056 64.3239 145.221 64.3239C146.67 64.3239 147.983 64.0597 149.159 63.5312C150.352 62.9858 151.349 62.2102 152.15 61.2045C152.968 60.1989 153.539 58.9886 153.863 57.5739H161.304C161.031 60.1136 160.204 62.3807 158.824 64.375C157.443 66.3693 155.593 67.9375 153.275 69.0795C150.974 70.2216 148.272 70.7926 145.17 70.7926ZM170.605 17.6364H182.213L191.494 55.5795H192.108L213.918 17.6364H225.526L216.832 70H207.73L213.713 34.0256H213.253L192.798 69.8466H186.023L177.534 33.9489H177.048L171.014 70H161.912L170.605 17.6364ZM243.015 70.7926C239.146 70.7926 235.813 69.9659 233.018 68.3125C230.24 66.642 228.092 64.2983 226.575 61.2812C225.075 58.2472 224.325 54.6932 224.325 50.6193C224.325 46.5966 225.075 43.0511 226.575 39.983C228.092 36.9148 230.206 34.5199 232.916 32.7983C235.643 31.0767 238.831 30.2159 242.478 30.2159C244.694 30.2159 246.842 30.5824 248.921 31.3153C251.001 32.0483 252.867 33.1989 254.521 34.767C256.174 36.3352 257.478 38.3722 258.433 40.8778C259.387 43.3665 259.865 46.392 259.865 49.9545V52.6648H228.646V46.9375H252.373C252.373 44.9261 251.964 43.1449 251.146 41.5938C250.328 40.0256 249.177 38.7898 247.694 37.8864C246.228 36.983 244.507 36.5312 242.529 36.5312C240.382 36.5312 238.507 37.0597 236.904 38.1165C235.319 39.1562 234.092 40.5199 233.223 42.2074C232.37 43.8778 231.944 45.6932 231.944 47.6534V52.1278C231.944 54.7528 232.404 56.9858 233.325 58.8267C234.262 60.6676 235.566 62.0739 237.237 63.0455C238.907 64 240.859 64.4773 243.092 64.4773C244.541 64.4773 245.862 64.2727 247.055 63.8636C248.248 63.4375 249.279 62.8068 250.149 61.9716C251.018 61.1364 251.683 60.1051 252.143 58.8778L259.379 60.1818C258.799 62.3125 257.76 64.179 256.26 65.7812C254.777 67.3665 252.91 68.6023 250.66 69.4886C248.427 70.358 245.879 70.7926 243.015 70.7926ZM278.729 70.767C275.558 70.767 272.729 69.9574 270.24 68.3381C267.768 66.7017 265.825 64.375 264.41 61.358C263.013 58.3239 262.314 54.6847 262.314 50.4403C262.314 46.196 263.021 42.5653 264.436 39.5483C265.868 36.5312 267.828 34.2216 270.317 32.6193C272.805 31.017 275.626 30.2159 278.78 30.2159C281.217 30.2159 283.177 30.625 284.66 31.4432C286.16 32.2443 287.319 33.1818 288.138 34.2557C288.973 35.3295 289.621 36.2756 290.081 37.0938H290.541V17.6364H298.186V70H290.72V63.8892H290.081C289.621 64.7244 288.956 65.679 288.086 66.7528C287.234 67.8267 286.058 68.7642 284.558 69.5653C283.058 70.3665 281.115 70.767 278.729 70.767ZM280.416 64.2472C282.615 64.2472 284.473 63.6676 285.99 62.5085C287.524 61.3324 288.683 59.7045 289.467 57.625C290.268 55.5455 290.669 53.125 290.669 50.3636C290.669 47.6364 290.277 45.25 289.493 43.2045C288.709 41.1591 287.558 39.5653 286.041 38.4233C284.524 37.2812 282.649 36.7102 280.416 36.7102C278.115 36.7102 276.197 37.3068 274.663 38.5C273.129 39.6932 271.97 41.321 271.186 43.3835C270.419 45.446 270.035 47.7727 270.035 50.3636C270.035 52.9886 270.427 55.3494 271.211 57.446C271.996 59.5426 273.155 61.2045 274.689 62.4318C276.24 63.642 278.149 64.2472 280.416 64.2472Z" fill="url(#paint0_linear_82_3304)"/>
<path d="M146 45L146 57" stroke="#FD5154" stroke-width="3" stroke-linecap="round"/>
<path d="M152 51H140" stroke="#FD5154" stroke-width="3" stroke-linecap="round"/>
<defs>
<linearGradient id="paint0_linear_82_3304" x1="9.47358" y1="127.376" x2="312.529" y2="58.4237" gradientUnits="userSpaceOnUse">
<stop offset="0.1" stop-color="#E91178"/>
<stop offset="0.9" stop-color="#F28021"/>
</linearGradient>
</defs>
</svg>
